<?xml version="1.0" encoding="UTF-8" standalone="no"?>
<!-- Generator: Adobe Illustrator 24.3.0, SVG Export Plug-In . SVG Version: 6.00 Build 0)  -->

<svg
   xmlns:dc="http://purl.org/dc/elements/1.1/"
   xmlns:cc="http://creativecommons.org/ns#"
   xmlns:rdf="http://www.w3.org/1999/02/22-rdf-syntax-ns#"
   xmlns:svg="http://www.w3.org/2000/svg"
   xmlns="http://www.w3.org/2000/svg"
   xmlns:xlink="http://www.w3.org/1999/xlink"
   xmlns:sodipodi="http://sodipodi.sourceforge.net/DTD/sodipodi-0.dtd"
   xmlns:inkscape="http://www.inkscape.org/namespaces/inkscape"
   version="1.1"
   id="Layer_1"
   x="0px"
   y="0px"
   viewBox="0 0 1187.37 164.27002"
   xml:space="preserve"
   inkscape:version="0.91 r13725"
   sodipodi:docname="konzum-logo.svg"
   width="1187.37"
   height="164.27002"><metadata
     id="metadata53"><rdf:RDF><cc:Work
         rdf:about=""><dc:format>image/svg+xml</dc:format><dc:type
           rdf:resource="http://purl.org/dc/dcmitype/StillImage" /><dc:title></dc:title></cc:Work></rdf:RDF></metadata><defs
     id="defs51" /><sodipodi:namedview
     pagecolor="#ffffff"
     bordercolor="#666666"
     borderopacity="1"
     objecttolerance="10"
     gridtolerance="10"
     guidetolerance="10"
     inkscape:pageopacity="0"
     inkscape:pageshadow="2"
     inkscape:window-width="1920"
     inkscape:window-height="1057"
     id="namedview49"
     showgrid="false"
     fit-margin-top="0"
     fit-margin-left="0"
     fit-margin-right="0"
     fit-margin-bottom="0"
     inkscape:zoom="0.78666667"
     inkscape:cx="746.24736"
     inkscape:cy="-14.216646"
     inkscape:window-x="1912"
     inkscape:window-y="-8"
     inkscape:window-maximized="1"
     inkscape:current-layer="Layer_1" /><style
     type="text/css"
     id="style3">
	.st0{clip-path:url(#SVGID_2_);fill:#3E3C38;}
	.st1{fill:#3E3C38;}
	.st2{clip-path:url(#SVGID_4_);fill:#3E3C38;}
	.st3{clip-path:url(#SVGID_6_);fill:#3E3C38;}
	.st4{clip-path:url(#SVGID_8_);fill:#FFFFFF;}
	.st5{clip-path:url(#SVGID_8_);fill:none;stroke:#FFFFFF;stroke-width:3.992;}
	.st6{clip-path:url(#SVGID_8_);fill:none;stroke:#FFFFFF;stroke-width:8;}
</style><g
     id="g5"
     transform="translate(-7.75,-555.7)"><defs
       id="defs7"><rect
         id="SVGID_1_"
         x="7.75"
         y="555.70001"
         width="1187.37"
         height="164.27" /></defs><clipPath
       id="SVGID_2_"><use
         xlink:href="#SVGID_1_"
         style="overflow:visible"
         id="use11"
         x="0"
         y="0"
         width="100%"
         height="100%" /></clipPath><path
       class="st0"
       d="m 195.01,682.49 c -18.75,0 -33.95,-15.19 -33.95,-33.94 0,-18.75 15.2,-33.95 33.95,-33.95 18.75,0 33.95,15.2 33.95,33.95 0,18.75 -15.2,33.94 -33.95,33.94 m 0,-104.38 c -38.9,0 -70.43,31.53 -70.43,70.44 0,38.89 31.53,70.43 70.43,70.43 38.9,0 70.43,-31.54 70.43,-70.43 0,-38.91 -31.53,-70.44 -70.43,-70.44"
       id="path13"
       clip-path="url(#SVGID_2_)"
       inkscape:connector-curvature="0"
       style="fill:#3e3c38" /><path
       class="st0"
       d="m 635.94,582.54 -36.83,0 0,80.82 c 0,11.96 -6.11,22.27 -20.17,22.27 -12.9,0 -20.56,-10.4 -20.56,-20.69 l 0,-82.39 -36.43,0 c -1.49,0 -2.79,1.3 -2.79,2.79 l 0,75.86 c 0,34.02 24.32,58.26 59.78,58.26 40.49,0 59.79,-28.67 59.79,-58.66 l 0,-75.46 c 0,-1.5 -1.3,-2.8 -2.79,-2.8"
       id="path15"
       clip-path="url(#SVGID_2_)"
       inkscape:connector-curvature="0"
       style="fill:#3e3c38" /><path
       class="st0"
       d="m 507.17,594.05 c 0.39,-0.87 0.87,-2.26 0.87,-3.84 0,-1.2 -0.03,-7.67 -0.03,-7.67 l -100.22,0 c -1.49,0 -2.8,1.3 -2.8,2.79 l 0.01,29.85 46.86,0 -45.38,90.05 c -0.15,0.25 -0.38,0.66 -0.61,1.21 -0.38,0.89 -0.74,2.1 -0.74,3.44 0,1.27 -0.07,7.8 -0.07,7.8 l 102.93,0 0,-30.15 c 0,-1.49 -1.31,-2.8 -2.79,-2.8 l -45.14,0 c 0,0 46.87,-90.13 47.11,-90.68"
       id="path17"
       clip-path="url(#SVGID_2_)"
       inkscape:connector-curvature="0"
       style="fill:#3e3c38" /><path
       class="st0"
       d="m 780.38,582.54 c -5.04,0 -6.99,1.03 -8.61,2.32 -0.03,0.03 -0.08,0.06 -0.11,0.09 -0.01,0 -51.76,51.26 -51.76,51.26 0,0 -51.76,-51.26 -51.76,-51.26 -0.03,-0.03 -0.08,-0.06 -0.11,-0.09 -1.63,-1.29 -3.57,-2.32 -8.61,-2.32 l -4.99,0 0,135.13 35.8,0 0,-65.06 30.24,31.52 29.43,-30.28 0.1,63.82 35.39,0 0,-135.13 -5.01,0 z"
       id="path19"
       clip-path="url(#SVGID_2_)"
       inkscape:connector-curvature="0"
       style="fill:#3e3c38" /><path
       class="st0"
       d="m 386.31,582.54 -35.5,-0.01 0,58.41 c 0,0 -60.92,-56.06 -60.95,-56.08 -1.61,-1.27 -3.57,-2.26 -8.52,-2.26 l -4.99,0 0,135.06 37.26,0.01 -0.06,-59.9 64.45,60.05 11.11,-0.03 0,-132.46 c 0,-1.49 -1.31,-2.79 -2.8,-2.79"
       id="path21"
       clip-path="url(#SVGID_2_)"
       inkscape:connector-curvature="0"
       style="fill:#3e3c38" /><path
       class="st0"
       d="m 111.24,615.79 -26.87,-26.88 -39.1,36.24 0,-42.63 -34.73,0 c -1.48,0 -2.79,1.31 -2.79,2.79 l 0,132.76 37.52,0 0,-42.9 42.79,42.46 50.09,-0.01 -64.1,-64.32 37.19,-37.51 z"
       id="path23"
       clip-path="url(#SVGID_2_)"
       inkscape:connector-curvature="0"
       style="fill:#3e3c38" /></g><polygon
     class="st1"
     points="144.49,582.58 117.59,555.7 90.72,582.59 117.6,609.47 "
     id="polygon25"
     style="fill:#3e3c38"
     transform="translate(-7.75,-555.7)" /><g
     id="g27"
     transform="translate(-7.75,-555.7)"><defs
       id="defs29"><rect
         id="SVGID_3_"
         x="7.75"
         y="555.70001"
         width="1187.37"
         height="164.27" /></defs><clipPath
       id="SVGID_4_"><use
         xlink:href="#SVGID_3_"
         style="overflow:visible"
         id="use33"
         x="0"
         y="0"
         width="100%"
         height="100%" /></clipPath><path
       class="st2"
       d="m 1195.12,719.45 0,-10.77 -28.1,0 0,-51.14 -12.07,0 0,61.91 40.17,0 z m -74.09,-30.96 c 0,11.83 -0.78,14.7 -3.05,17.31 -1.74,2 -4.44,3.4 -7.75,3.4 -3.3,0 -6,-1.4 -7.83,-3.4 -2.26,-2.61 -2.96,-5.48 -2.96,-17.31 0,-11.83 0.7,-14.79 2.96,-17.4 1.83,-2 4.53,-3.31 7.83,-3.31 3.31,0 6.01,1.31 7.75,3.31 2.27,2.61 3.05,5.57 3.05,17.4 m 12.08,0 c 0,-11.83 -0.17,-18.79 -6.35,-24.97 -4.17,-4.17 -9.39,-6.52 -16.53,-6.52 -7.13,0 -12.44,2.35 -16.61,6.52 -6.17,6.17 -6.26,13.14 -6.26,24.97 0,11.83 0.09,18.79 6.26,24.97 4.17,4.17 9.48,6.52 16.61,6.52 7.14,0 12.36,-2.35 16.53,-6.52 6.18,-6.18 6.35,-13.14 6.35,-24.97 m -61.24,-20.18 0,-10.77 -44.43,0 0,10.77 16.18,0 0,51.14 12.07,0 0,-51.14 16.18,0 z m -71.13,8.53 c 0,5.05 -3.48,8.44 -8.96,8.44 l -11.32,0 0,-16.97 11.32,0 c 5.48,0 8.96,3.48 8.96,8.53 m 12.08,0 c 0,-10.53 -7.56,-19.3 -20.43,-19.3 l -24,0 0,61.91 12.07,0 0,-23.31 11.93,0 c 12.87,0 20.43,-8.78 20.43,-19.3 m -81.05,21.49 -15.39,0 7.82,-22.53 7.57,22.53 z m 19.48,21.12 -22.61,-61.91 -9.48,0 -22.53,61.91 12.61,0 3.74,-10.96 22,0 3.66,10.96 12.61,0 z m -65.93,0 -22,-37.31 20.53,-24.61 -14.7,0 -21.83,26.96 0,-26.96 -12.08,0 0,61.91 12.08,0 0,-18.61 8,-9.56 15.92,28.17 14.08,0 z"
       id="path35"
       clip-path="url(#SVGID_4_)"
       inkscape:connector-curvature="0"
       style="fill:#3e3c38" /></g><g
     id="g37"
     transform="translate(-7.75,-555.7)"><defs
       id="defs39"><rect
         id="SVGID_7_"
         x="-1201.66"
         y="197.55"
         width="1163.3199"
         height="649.87" /></defs><clipPath
       id="SVGID_6_"><use
         xlink:href="#SVGID_7_"
         style="overflow:visible"
         id="use43"
         x="0"
         y="0"
         width="100%"
         height="100%" /></clipPath><line
       style="fill:none;stroke:#ffffff;stroke-width:8"
       x1="51"
       y1="515"
       x2="415"
       y2="515"
       id="line45"
       clip-path="url(#SVGID_6_)" /><line
       style="fill:none;stroke:#ffffff;stroke-width:8"
       x1="851"
       y1="515"
       x2="1215"
       y2="515"
       id="line47"
       clip-path="url(#SVGID_6_)" /></g></svg>