<?xml version="1.0" encoding="utf-8"?>
<!-- Generator: Adobe Illustrator 24.3.0, SVG Export Plug-In . SVG Version: 6.00 Build 0)  -->
<svg version="1.1" id="Layer_1" xmlns="http://www.w3.org/2000/svg" xmlns:xlink="http://www.w3.org/1999/xlink" x="0px" y="0px"
	 viewBox="0 0 1200 1200" style="enable-background:new 0 0 1200 1200;" xml:space="preserve">
<style type="text/css">
	.st0{clip-path:url(#SVGID_2_);fill:#3E3C38;}
	.st1{fill:#3E3C38;}
	.st2{clip-path:url(#SVGID_4_);fill:#3E3C38;}
	.st3{clip-path:url(#SVGID_6_);fill:#3E3C38;}
	.st4{clip-path:url(#SVGID_8_);fill:#FFFFFF;}
	.st5{clip-path:url(#SVGID_8_);fill:none;stroke:#FFFFFF;stroke-width:3.992;}
	.st6{clip-path:url(#SVGID_8_);fill:none;stroke:#FFFFFF;stroke-width:8;}
</style>
<g>
	<defs>
		<rect id="SVGID_5_" x="189.87" y="15.16" width="846.48" height="1170.1"/>
	</defs>
	<clipPath id="SVGID_2_">
		<use xlink:href="#SVGID_5_"  style="overflow:visible;"/>
	</clipPath>
	<path class="st0" d="M613.11,15.15c-140.17,0-280.81,32.6-406.69,94.27l-16.56,8.11v18.43v377.82v548.04v18.16l16.21,8.2
		c125.32,63.51,266.07,97.07,407.03,97.07s281.72-33.56,407.03-97.07l16.21-8.2v-18.16V135.97v-18.43l-16.56-8.11
		C893.92,47.76,753.28,15.15,613.11,15.15 M613.11,44.72c134.75,0,269.51,30.42,393.68,91.25v925.86
		c-123.52,62.59-258.59,93.87-393.68,93.87s-270.16-31.29-393.68-93.87c0-381.87,0-543.99,0-925.86
		C343.62,75.14,478.36,44.72,613.11,44.72"/>
	<path class="st0" d="M979.32,1044.76V797.48c-114.13-53.1-240.37-81.1-366.2-81.1c-125.85,0-252.07,28-366.2,81.1v247.28
		c113.53,54.65,239.77,83.46,366.2,83.46S865.78,1099.41,979.32,1044.76"/>
</g>
</svg>
