<?xml version="1.0" encoding="UTF-8" standalone="no"?>
<!-- Generator: Adobe Illustrator 24.3.0, SVG Export Plug-In . SVG Version: 6.00 Build 0)  -->

<svg
   xmlns:dc="http://purl.org/dc/elements/1.1/"
   xmlns:cc="http://creativecommons.org/ns#"
   xmlns:rdf="http://www.w3.org/1999/02/22-rdf-syntax-ns#"
   xmlns:svg="http://www.w3.org/2000/svg"
   xmlns="http://www.w3.org/2000/svg"
   xmlns:sodipodi="http://sodipodi.sourceforge.net/DTD/sodipodi-0.dtd"
   xmlns:inkscape="http://www.inkscape.org/namespaces/inkscape"
   version="1.1"
   id="Layer_1"
   x="0px"
   y="0px"
   viewBox="0 0 62.421875 93.626953"
   xml:space="preserve"
   inkscape:version="0.91 r13725"
   sodipodi:docname="PODLOGA .svg"
   width="62.421875"
   height="93.626953"><metadata
     id="metadata1019"><rdf:RDF><cc:Work
         rdf:about=""><dc:format>image/svg+xml</dc:format><dc:type
           rdf:resource="http://purl.org/dc/dcmitype/StillImage" /><dc:title></dc:title></cc:Work></rdf:RDF></metadata><defs
     id="defs1017" /><sodipodi:namedview
     pagecolor="#ffffff"
     bordercolor="#666666"
     borderopacity="1"
     objecttolerance="10"
     gridtolerance="10"
     guidetolerance="10"
     inkscape:pageopacity="0"
     inkscape:pageshadow="2"
     inkscape:window-width="1920"
     inkscape:window-height="1057"
     id="namedview1015"
     showgrid="false"
     fit-margin-top="0"
     fit-margin-left="0"
     fit-margin-right="0"
     fit-margin-bottom="0"
     inkscape:zoom="2.8284271"
     inkscape:cx="39.356118"
     inkscape:cy="43.628807"
     inkscape:window-x="1912"
     inkscape:window-y="-8"
     inkscape:window-maximized="1"
     inkscape:current-layer="Layer_1" /><style
     type="text/css"
     id="style3">
	.st0{fill:#DDDDDC;}
</style><path
     style="opacity:1;fill:#dddddc;fill-opacity:1;fill-rule:nonzero;stroke:none;stroke-width:2;stroke-linecap:round;stroke-linejoin:round;stroke-miterlimit:4;stroke-dasharray:none;stroke-dashoffset:0;stroke-opacity:1"
     d="m 6.1699219,0 0,21.769531 L 0,27.929688 0,31.539062 8.7207031,22.820312 8.7207031,0 6.1699219,0 Z M 22.25,0 22.25,29.589844 0,51.839844 0,55.449219 24.810547,30.650391 24.810547,0 22.25,0 Z m 15.369141,0 0,30.650391 24.800781,24.798828 0.002,-0.002 0,-3.609375 -0.002,0.002 -22.25,-22.25 0,-29.589844 -2.550781,0 z m 16.091797,0 0,22.820312 8.708984,8.71875 0.002,-0.002 0,-3.609375 -0.002,0.002 -6.160156,-6.160157 0,-21.769531 -2.548828,0 z m -22.541016,43.880859 0,0.08984 -25.0000001,25 0,24.65625 2.5507812,0 0,-23.597656 22.4902349,-22.5 22.5,22.5 0,23.597656 2.548828,0 0,-24.65625 -25.009766,-25 0,-0.08984 -0.03906,0.04883 -0.04102,-0.04883 z m 0,23.798829 0,0.08008 -8.919922,9.041015 0,16.826172 2.560547,0 0,-15.777344 6.400391,-6.490234 6.408203,6.490234 0,15.777344 2.550781,0 0,-16.826172 -8.919922,-9.041015 0,-0.08008 -0.03906,0.04102 -0.04102,-0.04102 z"
     id="rect6157"
     inkscape:connector-curvature="0" /></svg>