<?xml version="1.0" encoding="utf-8"?>
<!-- Generator: Adobe Illustrator 24.3.0, SVG Export Plug-In . SVG Version: 6.00 Build 0)  -->
<svg version="1.1" id="Layer_1" xmlns="http://www.w3.org/2000/svg" xmlns:xlink="http://www.w3.org/1999/xlink" x="0px" y="0px"
	 viewBox="0 0 1200 1200" style="enable-background:new 0 0 1200 1200;" xml:space="preserve">
<style type="text/css">
	.st0{clip-path:url(#SVGID_2_);fill:#3E3C38;}
	.st1{fill:#3E3C38;}
	.st2{clip-path:url(#SVGID_4_);fill:#3E3C38;}
	.st3{clip-path:url(#SVGID_6_);fill:#3E3C38;}
	.st4{clip-path:url(#SVGID_8_);fill:#FFFFFF;}
	.st5{clip-path:url(#SVGID_8_);fill:none;stroke:#FFFFFF;stroke-width:3.992;}
	.st6{clip-path:url(#SVGID_8_);fill:none;stroke:#FFFFFF;stroke-width:8;}
</style>
<g>
	<defs>
		<rect id="SVGID_7_" x="18.34" y="197.55" width="1163.32" height="649.87"/>
	</defs>
	<clipPath id="SVGID_2_">
		<use xlink:href="#SVGID_7_"  style="overflow:visible;"/>
	</clipPath>
	<path style="clip-path:url(#SVGID_2_);fill:#FFFFFF;" d="M829.37,366.76l-42.83,29.51c-0.03-1.1-0.06-2.19-0.1-3.26l27.96-23.72
		l-28.53,14.41c-0.16-1.85-0.35-3.65-0.55-5.4l28.04-16.7c5.42-3.23,7.28-12.32-3.86-16.67c-2.98-1.17-6.27-1.17-9.25-0.01
		l-19.85,7.69c-0.83-3.01-1.64-5.59-2.36-7.69c7.76-3.54,23.07-8.62,34.33-6.14c4.42,0.98,10.34,3.97,17.1,8.67
		C836.21,352.11,836.14,362.1,829.37,366.76 M433.18,466.32c-7.58-23.96-10.22-45.51-10.35-63.69
		c5.23,39.86,19.14,76.45,44.19,108.13c-30.89-47.75-39.73-107.71-29.25-162c61.72,22.66,213.82,21.48,283.5,10.02
		c5.84,17.92,23.95,87.15-14.58,163.39c-47.65,27.99-157.56,36.4-217.22,6.72c50.09,29.34,149.41,33.61,204.73,15.05
		C679.07,567.36,476.31,602.65,433.18,466.32 M370.52,347.44c12.06-8.37,17.85-9.33,23.67-9.33c10,0,21.25,3.86,27.61,6.73
		c-0.03,0.24-0.04,0.48-0.07,0.72c-0.67,1.97-1.4,4.33-2.15,7.04l-19.84-7.69c-5.21-2.02-9.07-0.06-11.82,1.02
		c-6.78,2.65-7.54,11.95-1.29,15.67l28.04,16.7c-0.2,1.76-0.39,3.55-0.55,5.4l-28.54-14.41l27.96,23.72
		c-0.04,1.08-0.07,2.16-0.1,3.26l-42.83-29.51C363.86,362.1,363.79,352.11,370.52,347.44 M469.48,269.18
		c22.81-7.74,51.25-13.94,79.5-17.41c0.5,3.46,2.97,5.93,5.99,6.64c22.14,5.25,60.18,4.62,79.9,1.86
		c75.54,10.49,88.18,34.97,92.23,64.63c12.83-1.06,30.9-3.22,42.86-8.5c0.98,1.63,0.87,2.98,0.75,3.55
		c-22.91,36.36-318.69,35.87-341.41,0.03c-0.12-0.6-0.21-1.78,0.52-3.21c33.91,17.69,94.01,18.08,131.91,16.7
		c-35.39-2.37-94.24-7.9-125.1-28.49C441.76,288.04,452.93,274.8,469.48,269.18 M570.42,244.53c7.78-0.35,14.89-1.68,22.36-3.58
		c-12.13-3.22-26.99-7.6-26.99-17.62c0-23.47,52.95-15.33,52.95-2.61c0,16.63-21.62,11.03-8.22,32.16c-0.03,0-0.07,0-0.1,0.01
		c-14.81,0.46-34.5,0.26-49.1-2.59C566.12,248.84,568.86,246.75,570.42,244.53 M782.62,361.69l20.99-8.13
		c1.51-0.59,2.57,0.03,4.08,0.62l-23.79,14.17C783.5,365.99,783.07,363.78,782.62,361.69 M416.1,368.34l-23.79-14.17
		c1.52-0.59,2.57-1.2,4.08-0.62l20.98,8.13C416.94,363.78,416.5,365.99,416.1,368.34 M834.78,339.82
		c-15.7-10.91-26.48-13.88-46.59-8.37c2.53-4.32,2.61-8.25,2.09-11.04c-1.82-9.72-12.5-16.68-18.58-19.92
		c-3.79-11.45-13.76-31.8-38.2-40.09c-26.35-8.94-59.97-15.88-92.32-19.05c-10.48-3.24,2.31-4.6,2.31-18.02
		c0-34.37-86.97-34.37-86.97,0c0,13.4,12.78,14.77,2.31,18.02c-32.35,3.17-65.97,10.1-92.32,19.05
		c-24.43,8.29-34.41,28.64-38.2,40.09c-6.09,3.24-16.77,10.21-18.58,19.92c-0.52,2.79-0.44,6.72,2.09,11.05
		c-20.02-5.49-30.82-2.59-46.59,8.37c-12.05,8.37-11.93,26.26,0.14,34.58l48.16,33.18c0.59,17.87,3.55,38.6,10.81,61.54
		c26.16,82.72,87.91,104.9,175.67,104.9c88,0,149.56-22.36,175.66-104.9c7.26-22.95,10.22-43.68,10.81-61.55l48.16-33.18
		C846.71,366.08,846.81,348.18,834.78,339.82"/>
	<path style="clip-path:url(#SVGID_2_);fill:#FFFFFF;" d="M1048.22,748.8c0,37.05-2.45,46.04-9.53,54.21
		c-5.45,6.26-13.9,10.62-24.24,10.62c-10.35,0-18.8-4.36-24.52-10.62c-7.08-8.17-9.26-17.17-9.26-54.21s2.18-46.31,9.26-54.48
		c5.72-6.26,14.17-10.35,24.52-10.35c10.35,0,18.8,4.09,24.24,10.35C1045.77,702.5,1048.22,711.76,1048.22,748.8 M1086.08,748.8
		c0-37.05-0.54-58.84-19.89-78.18c-13.07-13.08-29.42-20.43-51.75-20.43c-22.34,0-38.96,7.35-52.03,20.43
		c-19.34,19.34-19.62,41.13-19.62,78.18s0.27,58.84,19.62,78.18c13.07,13.08,29.69,20.43,52.03,20.43
		c22.34,0,38.68-7.35,51.75-20.43C1085.54,807.65,1086.08,785.85,1086.08,748.8 M877.7,711.21c0,14.99-10.9,25.61-27.51,25.61H814.5
		v-51.21h35.68C866.8,685.61,877.7,696.23,877.7,711.21 M923.46,845.78l-43.31-83.63c18.8-6.81,35.41-23.7,35.41-50.94
		c0-32.41-23.43-59.38-62.92-59.38h-76v193.95h37.87v-77.36h27.24l37.86,77.36H923.46z M748.58,685.61v-33.78h-139.2v33.78h50.67
		v160.18h37.86V685.61H748.58z M590.86,788.58c0-17.43-4.63-31.32-14.98-40.86c-8.45-8.17-19.34-12.8-37.05-15.25l-23.15-3.54
		c-8.17-1.09-13.89-3.81-17.71-7.35c-4.09-3.81-5.45-8.72-5.45-13.89c0-13.35,9.53-24.52,29.69-24.52c12.8,0,27.78,1.63,39.77,13.35
		l23.97-23.7c-16.62-16.07-35.96-22.61-62.65-22.61c-41.95,0-67.56,24.24-67.56,58.84c0,16.34,4.63,29.14,13.9,38.14
		c8.71,8.44,20.43,13.62,37.59,16.07l23.15,3.54c9.81,1.36,13.62,2.99,17.44,6.54c4.08,4.08,5.99,9.53,5.99,16.07
		c0,15.53-11.99,24.24-34.6,24.24c-17.71,0-34.32-4.09-46.58-16.35l-24.52,24.52c19.07,19.34,41.4,25.6,70.82,25.6
		C559.81,847.42,590.86,826.17,590.86,788.58 M383.29,779.59h-48.21l24.52-70.55L383.29,779.59z M444.31,845.78l-70.82-193.95
		h-29.69l-70.55,193.95h39.5l11.71-34.32h68.92l11.44,34.32H444.31z M261.26,766.24v-28.33h-73.28v31.87h35.69v7.08
		c0,10.08-2.45,18.8-8.72,25.88c-5.99,6.81-15.25,10.9-26.97,10.9c-10.35,0-18.52-3.81-24.24-10.08
		c-7.08-8.17-9.26-17.71-9.26-54.76s2.18-46.31,9.26-54.48c5.72-6.26,13.89-10.35,24.24-10.35c19.34,0,30.51,9.81,34.87,28.33h38.14
		c-5.18-32.69-27.79-62.11-73.01-62.11c-22.06,0-38.41,7.35-51.75,20.43c-19.34,19.34-19.62,41.13-19.62,78.18
		s0.27,58.84,19.62,78.18c13.35,13.08,29.69,20.43,51.75,20.43c20.7,0,38.68-5.17,54.75-22.07
		C256.9,810.64,261.26,794.3,261.26,766.24"/>
	<line style="clip-path:url(#SVGID_2_);fill:none;stroke:#FFFFFF;stroke-width:8;" x1="18" y1="515" x2="382" y2="515"/>
	<line style="clip-path:url(#SVGID_2_);fill:none;stroke:#FFFFFF;stroke-width:8;" x1="818" y1="515" x2="1182" y2="515"/>
	<line style="clip-path:url(#SVGID_2_);fill:none;stroke:#FFFFFF;stroke-width:8;" x1="51" y1="515" x2="415" y2="515"/>
	<line style="clip-path:url(#SVGID_2_);fill:none;stroke:#FFFFFF;stroke-width:8;" x1="851" y1="515" x2="1215" y2="515"/>
</g>
</svg>
